<?xml version="1.0" encoding="UTF-8"?>
<!-- Created with Inkscape (http://www.inkscape.org/) -->
<svg width="10.014mm" height="16.022mm" version="1.1" viewBox="0 0 10.014 16.022" xmlns="http://www.w3.org/2000/svg">
 <g transform="translate(-53.368 -69.69)">
  <path id="Destination0.Icon.Dining" d="m57.373 70.001v3.6944h-0.66762v-3.6717c0-0.18425-0.14956-0.3338-0.33381-0.3338-0.18425 0-0.33372 0.14955-0.33372 0.3338v3.6717h-0.66762v-3.6837c0-0.42959-0.66762-0.41492-0.66762-0.01134v3.6948h-0.66753v-3.6684c0-0.45496-0.66762-0.43828-0.66762-0.01801v4.8306c0 0.69663 0.66762 1.1559 1.3351 1.1559v8.715c0 1.3352 2.0028 1.3352 2.0028 0v-8.7147c0.66762 0 1.3352-0.55476 1.3352-1.0771v-4.9071c0-0.42558-0.66753-0.40924-0.66753-0.01013zm3.0041 1.0241v8.3448h0.66762v5.3407c0 1.3352 2.3365 1.3352 2.3365 0v-13.686c0-1.669-3.0041-1.669-3.0041 0z" fill="#fff" stroke-width=".33379"/>
 </g>
</svg>
