<?xml version="1.0" encoding="UTF-8" standalone="no"?>
<!-- Created with Inkscape (http://www.inkscape.org/) -->

<svg
   width="14.32497mm"
   height="16.022522mm"
   viewBox="0 0 14.32497 16.022522"
   version="1.1"
   id="svg1118"
   xmlns="http://www.w3.org/2000/svg"
   xmlns:svg="http://www.w3.org/2000/svg">
  <defs
     id="defs1115" />
  <g
     id="layer1"
     transform="translate(156.128,-191.80857)">
    <path
       style="fill:#ffffff;fill-opacity:1;stroke-width:0.343866"
       d="m -144.99119,193.1442 v 8.34482 h 0.70852 v 5.34069 c 0,1.33518 2.47964,1.33518 2.47964,0 V 193.1442 c 0,-1.66896 -3.18816,-1.66896 -3.18816,0 z"
       id="path1921" />
    <path
       style="fill:#ffffff;fill-opacity:1;stroke-width:0.343866"
       d="m -151.87706,192.12011 v 3.69444 h -0.70852 v -3.67172 c 0,-0.18425 -0.15872,-0.33381 -0.35426,-0.33381 -0.19555,0 -0.35417,0.14956 -0.35417,0.33381 v 3.67172 h -0.70852 v -3.68374 c 0,-0.4296 -0.70853,-0.41492 -0.70853,-0.0114 v 3.69475 h -0.70842 v -3.66838 c 0,-0.45495 -0.70852,-0.43827 -0.70852,-0.018 v 4.83066 c 0,0.69663 0.70852,1.15594 1.41694,1.15594 v 8.71499 c 0,1.33518 2.12548,1.33518 2.12548,0 v -8.71466 c 0.70852,0 1.41695,-0.55477 1.41695,-1.07715 v -4.9071 c 0,-0.42558 -0.70843,-0.40924 -0.70843,-0.0102 z"
       id="Destination5.Icon.Dining" />
  </g>
</svg>
