<?xml version="1.0" encoding="UTF-8" standalone="no"?>
<!-- Created with Inkscape (http://www.inkscape.org/) -->

<svg
   width="22.313002mm"
   height="14.908867mm"
   viewBox="0 0 22.313002 14.908867"
   version="1.1"
   id="svg1118"
   xmlns="http://www.w3.org/2000/svg"
   xmlns:svg="http://www.w3.org/2000/svg">
  <defs
     id="defs1115" />
  <g
     id="layer1"
     transform="translate(102.60718,-144.20629)">
    <g
       id="Destination2.Icon.ElevationGain"
       transform="matrix(0.9376711,0,0,0.9376711,-84.14197,-262.41183)">
      <path
         id="path7901"
         style="fill:#ffffff;fill-opacity:1;stroke:none;stroke-width:0.00180901;stroke-linecap:square;stroke-linejoin:round;paint-order:fill markers stroke"
         d="m -3.8588947,433.713 -3.16675,3.16674 c 0,0 0.80301,-0.80301 -4.9e-4,4.8e-4 -0.6768,0.67679 -3.2702903,2.01888 -3.9759903,2.72458 -0.93703,0.93704 -1.6922,2.94364 -2.35701,3.60845 -0.50817,0.50816 -2.99763,1.54377 -3.70044,2.2466 -0.64437,0.64438 -2.63305,4.08689 -2.63305,4.08689 h 3.16675 12.6669803 v -3.16675 z" />
      <rect
         style="fill:#ffffff;fill-opacity:1;stroke:none;stroke-width:0.0427564;stroke-linecap:square;stroke-linejoin:round;paint-order:fill markers stroke"
         id="rect7903"
         width="1.1750689"
         height="15.826711"
         x="0.7037704"
         y="433.64685" />
      <rect
         style="fill:#ffffff;fill-opacity:1;stroke:none;stroke-width:0.0207751;stroke-linecap:square;stroke-linejoin:round;paint-order:fill markers stroke"
         id="rect7905"
         width="0.78064656"
         height="5.6245236"
         x="433.65552"
         y="-4.1035666"
         transform="rotate(90)" />
      <path
         id="path7907"
         style="fill:#ffffff;fill-opacity:1;stroke:none;stroke-width:0.0300552px;stroke-linecap:butt;stroke-linejoin:miter;stroke-opacity:1"
         d="m -15.857709,435.04419 -1.074201,1.07418 h 2.105924 l -3.535464,3.53548 1.061312,1.06131 3.535485,-3.53546 -1.4e-5,2.10592 1.074147,-1.0742 -7e-6,-2.10589 v -1.06134 h -1.061271 z" />
      <rect
         style="fill:#ffffff;fill-opacity:1;stroke:none;stroke-width:0.0207751;stroke-linecap:square;stroke-linejoin:round;paint-order:fill markers stroke"
         id="rect7909"
         width="0.78064656"
         height="5.6245236"
         x="448.6929"
         y="-4.1035666"
         transform="rotate(90)" />
      <path
         id="path7911"
         style="fill:#ffffff;fill-opacity:1;stroke:none;stroke-width:0.00180901;stroke-linecap:square;stroke-linejoin:round;paint-order:fill markers stroke"
         d="m -3.8588947,433.713 -3.16675,3.16674 c 0,0 0.80301,-0.80301 -4.9e-4,4.8e-4 -0.6768,0.67679 -3.2702903,2.01888 -3.9759903,2.72458 -0.93703,0.93704 -1.6922,2.94364 -2.35701,3.60845 -0.50817,0.50816 -2.99763,1.54377 -3.70044,2.2466 -0.64437,0.64438 -2.63305,4.08689 -2.63305,4.08689 h 3.16675 12.6669803 v -3.16675 z" />
      <rect
         style="fill:#ffffff;fill-opacity:1;stroke:none;stroke-width:0.0427564;stroke-linecap:square;stroke-linejoin:round;paint-order:fill markers stroke"
         id="rect7913"
         width="1.1750689"
         height="15.826711"
         x="0.7037704"
         y="433.64685" />
      <rect
         style="fill:#ffffff;fill-opacity:1;stroke:none;stroke-width:0.0207751;stroke-linecap:square;stroke-linejoin:round;paint-order:fill markers stroke"
         id="rect7915"
         width="0.78064656"
         height="5.6245236"
         x="433.65552"
         y="-4.1035666"
         transform="rotate(90)" />
      <path
         id="path7917"
         style="fill:#ffffff;fill-opacity:1;stroke:none;stroke-width:0.0300552px;stroke-linecap:butt;stroke-linejoin:miter;stroke-opacity:1"
         d="m -15.857709,435.04419 -1.074201,1.07418 h 2.105924 l -3.535464,3.53548 1.061312,1.06131 3.535485,-3.53546 -1.4e-5,2.10592 1.074147,-1.0742 -7e-6,-2.10589 v -1.06134 h -1.061271 z" />
      <rect
         style="fill:#ffffff;fill-opacity:1;stroke:none;stroke-width:0.0207751;stroke-linecap:square;stroke-linejoin:round;paint-order:fill markers stroke"
         id="rect7919"
         width="0.78064656"
         height="5.6245236"
         x="448.6929"
         y="-4.1035666"
         transform="rotate(90)" />
    </g>
  </g>
</svg>
