<?xml version="1.0" encoding="UTF-8"?>
<!-- Created with Inkscape (http://www.inkscape.org/) -->
<svg width="16.276mm" height="14.468mm" version="1.1" viewBox="0 0 16.276 14.468" xmlns="http://www.w3.org/2000/svg">
 <g transform="translate(-27.875 -101.9)">
  <path id="Destination0.Icon.Grocery" d="m42.798 110.41 1.3358-5.8774c0.09649-0.42436-0.22607-0.82848-0.66124-0.82848h-11.099l-0.25908-1.2662c-0.0647-0.31561-0.34225-0.54226-0.66434-0.54226h-2.8972c-0.37451 0-0.67812 0.30363-0.67812 0.67817v0.45211c0 0.37455 0.30362 0.67816 0.67812 0.67816h1.9747l1.985 9.7045c-0.47484 0.27309-0.79486 0.78517-0.79486 1.3723 0 0.87394 0.70841 1.5824 1.5824 1.5824 0.87391 0 1.5823-0.70845 1.5823-1.5824 0-0.44289-0.18219-0.84304-0.4754-1.1303h5.924c-0.29321 0.28724-0.4754 0.68739-0.4754 1.1303 0 0.87394 0.7085 1.5824 1.5824 1.5824 0.87391 0 1.5824-0.70845 1.5824-1.5824 0-0.62652-0.36419-1.1679-0.89238-1.4243l0.15594-0.68596c0.09649-0.42436-0.22607-0.82846-0.66134-0.82846h-7.5846l-0.18491-0.90423h8.2834c0.31665 0 0.59111-0.2191 0.66125-0.52787z" fill="#fff" stroke-width=".028257"/>
 </g>
</svg>
