<?xml version="1.0" encoding="UTF-8"?>
<!-- Created with Inkscape (http://www.inkscape.org/) -->
<svg width="18.653mm" height="17.209mm" version="1.1" viewBox="0 0 18.653 17.209" xmlns="http://www.w3.org/2000/svg">
 <g transform="translate(-17.889 -74.224)">
  <g id="Destination0.Icon.Washroom" transform="matrix(.030085 0 0 .030085 17.888 74.223)" fill="#fff">
   <circle cx="130.95" cy="46.586" r="46.545"/>
   <path d="m124.51 388.16v161.83c-0.24346 29.402-44.01 29.402-44.397 0v-161.83h-57.287l61.583-216.26h-10.025l-35.804 123.17c-9.0513 27.24-45.887 16.212-37.236-12.889l40.101-133.19c4.6116-15.295 23.888-42.304 57.287-42.965h64.447c32.436 0.66024 51.793 27.898 57.287 42.965l40.101 133.19c8.1347 28.958-28.408 40.845-37.236 12.889l-35.804-123.17h-11.457l63.015 216.26h-58.719v161.83c0.4583 29.402-43.137 29.259-42.965 0v-161.83z"/>
   <circle cx="511.91" cy="46.586" r="46.545"/>
   <path d="m462.5 106.02c-35.79 0-58.719 30.988-58.719 61.583v143.22c-0.3294 27.984 39.966 27.984 40.101 0v-131.76h10.025v363.77c-0.62156 37.981 53.047 36.892 52.99 0v-211.96h8.593v211.96c0.70176 36.892 54.651 37.981 54.422 0v-363.77h10.025v131.76c-0.4726 28.199 39.614 28.199 40.101 0v-143.22c-0.5728-30.595-24.361-61.034-60.151-61.583z"/>
   <rect x="297.79" y="5.7684" width="52.997" height="562.84"/>
  </g>
 </g>
</svg>
